<?xml version="1.0" encoding="UTF-8"?>
<!DOCTYPE svg PUBLIC "-//W3C//DTD SVG 1.1//EN" "http://www.w3.org/Graphics/SVG/1.1/DTD/svg11.dtd">
<!-- Creator: CorelDRAW -->
<svg xmlns="http://www.w3.org/2000/svg" xml:space="preserve" width="7.0762mm" height="7.2016mm" version="1.1" style="shape-rendering:geometricPrecision; text-rendering:geometricPrecision; image-rendering:optimizeQuality; fill-rule:evenodd; clip-rule:evenodd"
viewBox="0 0 33.71 34.31"
 xmlns:xlink="http://www.w3.org/1999/xlink"
 xmlns:xodm="http://www.corel.com/coreldraw/odm/2003">
 <defs>
  <style type="text/css">
   <![CDATA[
    .fil0 {fill:#FEFEFE;fill-rule:nonzero}
   ]]>
  </style>
 </defs>
 <g id="Слой_x0020_1">
  <metadata id="CorelCorpID_0Corel-Layer"/>
  <path class="fil0" d="M22.68 33.7l0 -3.68c0,-0.18 -0.06,-0.33 -0.17,-0.44 -0.11,-0.11 -0.26,-0.17 -0.44,-0.17l-4.9 0c-0.18,0 -0.33,0.06 -0.44,0.17 -0.11,0.11 -0.17,0.26 -0.17,0.44l0 3.68c0,0.18 0.06,0.33 0.17,0.44 0.11,0.11 0.26,0.17 0.44,0.17l4.9 0c0.18,0 0.33,-0.06 0.44,-0.17 0.11,-0.11 0.17,-0.26 0.17,-0.44zm3.68 -9.8l0 -3.68c0,-0.18 -0.06,-0.33 -0.17,-0.44 -0.11,-0.12 -0.26,-0.17 -0.44,-0.17l-8.58 0c-0.18,0 -0.33,0.06 -0.44,0.17 -0.11,0.11 -0.17,0.26 -0.17,0.44l0 3.68c0,0.18 0.06,0.33 0.17,0.44 0.11,0.11 0.26,0.17 0.44,0.17l8.58 0c0.18,0 0.33,-0.06 0.44,-0.17 0.12,-0.11 0.17,-0.26 0.17,-0.44zm3.68 -9.8l0 -3.68c0,-0.18 -0.06,-0.33 -0.17,-0.44 -0.11,-0.11 -0.26,-0.17 -0.44,-0.17l-12.25 0c-0.18,0 -0.33,0.06 -0.44,0.17 -0.11,0.12 -0.17,0.26 -0.17,0.44l0 3.68c0,0.18 0.06,0.33 0.17,0.44 0.11,0.11 0.26,0.17 0.44,0.17l12.25 0c0.18,0 0.33,-0.06 0.44,-0.17 0.12,-0.11 0.17,-0.26 0.17,-0.44zm3.68 -9.8l0 -3.68c0,-0.18 -0.06,-0.33 -0.17,-0.44 -0.11,-0.11 -0.26,-0.17 -0.44,-0.17l-15.93 0c-0.18,0 -0.33,0.06 -0.44,0.17 -0.11,0.11 -0.17,0.26 -0.17,0.44l0 3.68c0,0.18 0.06,0.33 0.17,0.44 0.11,0.11 0.26,0.17 0.44,0.17l15.93 0c0.18,0 0.33,-0.06 0.44,-0.17 0.12,-0.11 0.17,-0.26 0.17,-0.44zm-20.22 2.45c0,-0.15 -0.06,-0.31 -0.19,-0.46l-6.11 -6.11c-0.13,-0.11 -0.27,-0.17 -0.44,-0.17 -0.15,0 -0.3,0.06 -0.44,0.17l-6.13 6.13c-0.19,0.2 -0.24,0.43 -0.13,0.67 0.1,0.26 0.29,0.38 0.57,0.38l3.68 0 0 26.34c0,0.18 0.06,0.33 0.17,0.44 0.11,0.11 0.26,0.17 0.44,0.17l3.68 0c0.18,0 0.33,-0.06 0.44,-0.17 0.11,-0.11 0.17,-0.26 0.17,-0.44l0 -26.34 3.68 0c0.18,0 0.33,-0.06 0.44,-0.17 0.11,-0.11 0.17,-0.26 0.17,-0.44z"/>
 </g>
</svg>
