<svg width="51" height="60" viewBox="0 0 51 60" fill="none" xmlns="http://www.w3.org/2000/svg">
<path fill-rule="evenodd" clip-rule="evenodd" d="M25.7823 27.9196C27.3187 29.3713 28.8139 30.8639 30.2656 32.4017C32.3236 32.3545 34.4106 32.3636 36.5117 32.4017C33.9359 29.8861 31.3953 27.3546 28.9057 24.7973C27.928 25.8594 26.8867 26.9006 25.7823 27.9196ZM36.2346 13.4814C29.927 13.5476 23.6209 13.5544 17.314 13.4818C17.3408 14.8561 17.3431 16.2303 17.314 17.6034C20.0039 17.5694 22.6933 17.5679 25.3824 17.5962C25.6678 17.5989 26.0643 17.5871 26.2779 17.5251C26.0288 17.6351 25.7045 17.9749 25.5234 18.1593C22.8075 20.932 20.0719 23.6665 17.314 26.3553C17.393 28.3705 17.3865 30.3857 17.314 32.4017C23.6212 26.0132 29.9274 19.7245 36.2346 13.4814Z" fill="#F47D35"/>
<path fill-rule="evenodd" clip-rule="evenodd" d="M40.519 6.37554L37.0524 9.84289C30.6099 4.0364 20.7365 4.03642 14.2924 9.84178L10.8255 6.37554C14.7362 2.76798 19.9542 0.558869 25.6722 0.558869C31.3906 0.558113 36.6083 2.76798 40.519 6.37554ZM13.0305 11.1038C7.2244 17.5471 7.2244 27.42 13.0305 33.8633L9.56427 37.3299C5.95671 33.4192 3.74683 28.2023 3.74683 22.4839C3.74683 16.7658 5.95635 11.5475 9.56353 7.63755L13.0305 11.1038ZM41.7806 37.3299L38.3129 33.8622C44.1194 27.4184 44.1197 17.5478 38.3136 11.1038L41.7806 7.6364C45.3882 11.5467 47.5977 16.7658 47.5977 22.4839C47.5977 28.2023 45.3878 33.4192 41.7806 37.3299ZM10.8252 38.5919L14.2924 35.1249C20.7365 40.9303 30.6091 40.9299 37.0521 35.1242L40.5193 38.5911C36.609 42.2002 31.3906 44.4093 25.6722 44.4093C19.9538 44.4089 14.7355 42.2002 10.8252 38.5919Z" fill="#1A5493"/>
<path fill-rule="evenodd" clip-rule="evenodd" d="M10.3407 54.6069C12.3102 52.6967 14.245 50.7748 16.1389 48.8382C17.413 48.8661 18.6678 48.8658 19.9056 48.8382C21.6846 50.7616 23.5055 52.6842 25.3628 54.6069C23.8922 54.5861 22.4261 54.5823 20.9657 54.6069C18.4137 51.5817 19.4127 52.7371 17.1661 50.1172C17.1091 50.0503 17.0323 49.9528 16.9972 49.8768C16.9632 49.9445 16.8879 50.0333 16.8376 50.0892C14.7347 52.4253 14.9683 52.1415 12.7902 54.6069C11.9832 54.5868 11.1658 54.5891 10.3407 54.6069Z" fill="#1A5493"/>
<path fill-rule="evenodd" clip-rule="evenodd" d="M18.8102 53.4375C17.51 53.425 16.2094 53.4246 14.9097 53.4375C15.2578 53.0656 15.5813 52.6941 15.8799 52.3229C16.5519 52.335 17.2239 52.3354 17.8955 52.3229C18.1877 52.7005 18.4935 53.0716 18.8102 53.4375Z" fill="#1A5493"/>
<path fill-rule="evenodd" clip-rule="evenodd" d="M22.8699 48.8382C27.0255 48.885 31.1803 48.885 35.3366 48.8382C35.3253 49.2418 35.3242 49.6459 35.3366 50.0503C33.9828 50.0446 32.6289 50.0393 31.2755 50.034C31.1606 50.0333 31.0019 50.0298 30.9082 50.0083C30.9297 50.1024 30.9297 50.2226 30.9293 50.3179C30.9207 51.7435 30.9244 53.1827 30.944 54.6069C29.7164 54.5698 28.4892 54.5702 27.2624 54.6069C27.2904 53.1827 27.2953 51.7439 27.2821 50.3179C27.281 50.2226 27.2798 50.1039 27.2968 50.0076C27.208 50.0287 27.087 50.0333 26.991 50.0333C25.5593 50.0385 24.243 50.0446 22.8699 50.0503C22.8789 49.6459 22.8793 49.2418 22.8699 48.8382Z" fill="#1A5493"/>
<path fill-rule="evenodd" clip-rule="evenodd" d="M36.484 54.6069C36.5222 52.6842 36.5192 50.7608 36.484 48.8378C37.7248 48.8718 38.9687 48.8733 40.2231 48.8378C41.2704 50.2702 42.3483 51.6796 43.5302 53.0108C43.571 53.0558 43.6228 53.1181 43.6526 53.1703C43.6814 53.117 43.7377 53.0527 43.7797 53.0055C44.9604 51.6762 46.0364 50.2687 47.0826 48.8378C48.337 48.8733 49.5816 48.8718 50.8216 48.8378C50.7869 50.7608 50.7838 52.6842 50.8216 54.6069C49.5948 54.5702 48.3672 54.5702 47.14 54.6069C47.1521 53.7126 47.1585 52.8195 47.1589 51.9253C47.1589 51.8327 47.1634 51.6611 47.1865 51.5609C47.1385 51.6551 47.0274 51.801 46.9616 51.8781C46.1865 52.7829 45.4234 53.6922 44.6773 54.6069C43.9936 54.5891 43.3102 54.591 42.6284 54.6069C41.8823 53.6918 41.1192 52.7833 40.3448 51.8781C40.279 51.801 40.1671 51.6551 40.1195 51.5609C40.1422 51.6607 40.1468 51.8327 40.1468 51.9253C40.1475 52.8188 40.1536 53.713 40.1657 54.6069C38.9381 54.5702 37.7108 54.5702 36.484 54.6069Z" fill="#1A5493"/>
<path fill-rule="evenodd" clip-rule="evenodd" d="M0.658691 54.6069C0.696487 52.6842 0.693841 50.7608 0.658691 48.8378C3.65208 48.8684 6.56003 48.8597 9.55379 48.8412C10.1026 48.8378 10.6725 48.8227 11.1911 49.0691C11.7917 49.3556 12.2528 49.8957 12.2528 50.6236C12.2528 51.3119 11.7981 51.9121 11.1348 52.2103C10.5977 52.451 10.01 52.4095 9.44949 52.4095C7.81447 52.4095 6.26597 52.4095 4.63133 52.4095C4.52777 52.4095 4.39206 52.4098 4.30475 52.3826C4.32554 52.4771 4.32291 52.6045 4.32291 52.7016C4.32594 53.3362 4.33164 53.9715 4.34034 54.6069C3.11312 54.5702 1.88553 54.5702 0.658691 54.6069ZM4.30365 50.0295C4.32595 50.1153 4.32706 50.2283 4.32668 50.3179C4.32441 50.6078 4.32292 50.8984 4.32254 51.1887C4.32179 51.2854 4.31386 51.4147 4.30328 51.5039C4.39399 51.4876 4.52478 51.4786 4.62683 51.4786L8.1017 51.4782C8.6195 51.4729 9.11612 51.2533 9.11612 50.7638C9.11612 50.203 8.53103 50.0503 8.11529 50.0503C8.11075 50.0503 8.10699 50.0503 8.10207 50.0503C6.90056 50.0499 5.82796 50.0503 4.62683 50.0503C4.52705 50.0499 4.4004 50.0423 4.30365 50.0295Z" fill="#1A5493"/>
<path fill-rule="evenodd" clip-rule="evenodd" d="M0.99353 58.6835L1.65687 57.6535L1.05628 56.7094H1.51358L1.90327 57.344L2.28388 56.7094H2.73854L2.13455 57.6683L2.79789 58.6835H2.32544L1.89493 58.0009L1.46368 58.6835H0.99353ZM8.98989 57.7084C8.98989 57.5077 9.01936 57.3391 9.07832 57.2027C9.12254 57.1021 9.18298 57.0122 9.25933 56.9317C9.33567 56.8523 9.41923 56.7933 9.50994 56.7548C9.63127 56.7022 9.77036 56.6761 9.92835 56.6761C10.2145 56.6761 10.4427 56.7665 10.6147 56.9468C10.7867 57.1271 10.872 57.3784 10.872 57.6993C10.872 58.0183 10.787 58.2673 10.6166 58.4472C10.4461 58.6268 10.2183 58.7171 9.93403 58.7171C9.64528 58.7171 9.41583 58.6275 9.24538 58.4491C9.07492 58.2692 8.98989 58.0228 8.98989 57.7084ZM9.39316 57.6955C9.39316 57.9185 9.44416 58.0886 9.54545 58.2038C9.64712 58.3187 9.77601 58.3766 9.93248 58.3766C10.0882 58.3762 10.2167 58.3199 10.3172 58.2046C10.4166 58.0905 10.4669 57.9189 10.4669 57.6898C10.4669 57.4638 10.4181 57.2952 10.321 57.1834C10.2235 57.0726 10.0939 57.0171 9.93248 57.0171C9.77072 57.0167 9.64071 57.0738 9.54168 57.186C9.44304 57.2983 9.39316 57.4684 9.39316 57.6955ZM17.3895 56.7094H18.7493V58.6835H18.3571V57.0435H17.7739V57.8864C17.7739 58.1279 17.7656 58.2964 17.7497 58.3924C17.7342 58.4877 17.6949 58.5621 17.634 58.6158C17.5728 58.6687 17.4772 58.6956 17.346 58.6956C17.2999 58.6952 17.2168 58.6914 17.0962 58.682V58.3735L17.1831 58.3751C17.2655 58.3751 17.3207 58.3641 17.3487 58.3414C17.377 58.3188 17.3914 58.2643 17.3914 58.1759L17.3895 57.8365V56.7094ZM25.449 56.7094H26.7903V58.3524H26.9608V59.1143H26.6353V58.6835H25.4134V59.1143H25.088V58.3524H25.2524C25.3322 58.1834 25.3854 57.9876 25.4108 57.7643C25.4365 57.5417 25.449 57.2593 25.449 56.9184V56.7094ZM25.8224 57.0409C25.8224 57.6403 25.7691 58.078 25.6628 58.3524H26.3995V57.0409H25.8224ZM33.3697 56.7094H33.7363V58.0232L34.5229 56.7094H34.9129V58.6835H34.5467V57.395L33.7613 58.6835H33.3697V56.7094ZM41.4545 58.6835V56.7094H41.8465V57.4861H42.614V56.7094H43.0056V58.6835H42.614V57.8206H41.8465V58.6835H41.4545ZM49.5706 56.7094H50.8856V57.0409H49.9634V58.6835H49.5706V56.7094Z" fill="#1A5493"/>
</svg>
