<svg width="126" height="31" viewBox="0 0 126 31" fill="none" xmlns="http://www.w3.org/2000/svg">
<path fill-rule="evenodd" clip-rule="evenodd" d="M9.66852 27.0472L16.8005 27.0468C19.6181 27.0411 22.6799 25.6453 24.9646 23.3455C27.0169 21.2796 28.4203 18.4869 28.4203 15.3337C28.4203 12.0281 27.0396 9.2539 25.0187 7.23677C22.6856 4.90593 19.5213 3.57291 16.6413 3.57291H3.35519L3.35593 23.5058L4.9248 21.935V21.9426L14.5974 12.2586V12.2515L15.6927 11.1546L15.7607 20.422C16.8643 20.4194 17.4113 20.3411 18.4782 19.9485C19.8464 19.4439 20.9508 18.6264 21.6054 17.0431C21.9391 16.2358 22.0631 15.351 21.9879 14.4795C21.9126 13.6143 21.6371 12.773 21.1703 12.0455C20.337 10.7442 18.8667 9.78305 16.8005 9.66626L9.66852 9.66855V15.4973L6.83044 18.3391V6.8301C9.94288 6.8301 13.9205 6.58369 16.867 6.83578C19.9942 6.98507 22.2505 8.47987 23.5548 10.5148C24.276 11.6399 24.7008 12.9257 24.815 14.2353C24.9284 15.5389 24.7348 16.8783 24.2223 18.1184C23.1111 20.8057 21.3306 22.0729 19.1264 22.7181C17.9778 23.0537 16.7767 23.2518 15.5805 23.254L12.9393 23.2597L12.8766 17.9793L9.66852 21.1912V21.1972L6.83044 24.0387V24.033L0.529589 30.3414L0.528076 0.734467H16.6413C20.2326 0.734467 24.1513 2.36987 27.0146 5.22908C29.5356 7.747 31.2583 11.2076 31.2583 15.3337C31.2583 19.2927 29.5182 22.7786 26.9719 25.3415C24.1668 28.1652 20.3525 29.8796 16.8005 29.8765L6.83044 29.875V25.6211L9.66852 22.7793V27.0472Z" fill="#EF8634"/>
<path fill-rule="evenodd" clip-rule="evenodd" d="M125.345 0.468811H116.489V8.23836H118.878V2.46591H122.966V8.23836H125.345V0.468811ZM64.8761 8.19643H65.5757H71.6509H72.2288V8.9134H74.3022V8.19643V6.41777H73.1986L70.0816 0.517162H69.6651H67.5615H67.1449L64.0276 6.41777H62.8027V8.19643V8.9134H64.8761V8.19643ZM70.7034 6.41777H66.5232L68.6133 2.49274L70.7034 6.41777ZM42.9117 0.468811V8.23836H45.28V5.83762H48.6033C50.2727 5.83762 51.5279 5.01935 51.5279 3.23012C51.5279 0.959377 49.8347 0.468811 48.1347 0.468811H42.9117ZM45.28 2.37858H48.2216C48.9201 2.37858 49.2477 2.65072 49.2477 3.20782C49.2477 3.84052 48.8422 4.02611 48.2651 4.02611H45.28V2.37858ZM61.7013 0.468811H59.1592L55.0716 5.25973C55.1045 4.68146 55.126 3.86245 55.126 3.41533V0.468811H52.8447V8.23836H55.3982L59.4967 3.404C59.4536 3.86245 59.4313 4.8232 59.4313 5.31454V8.23836H61.7013V0.468811ZM114.863 0.468811H106.006V8.23836H108.396V2.46591H112.484V8.23836H114.863V0.468811ZM100.046 5.62104C99.4663 6.77115 98.8903 6.38904 97.4371 6.43364C97.4371 7.05499 97.4371 7.67787 97.4371 8.29922C99.7978 8.25992 101.169 8.34306 102.188 6.50129L105.59 0.468811H102.838L100.747 4.28159C100.322 4.14062 100.405 4.15688 100.157 3.79631L98.3408 0.468811H95.4271L98.1692 5.02012C98.7074 5.79038 99.1409 5.6645 100.046 5.62104ZM87.1065 0.468811V8.23836H89.4747V5.83762H92.7985C94.4679 5.83762 95.7234 5.01934 95.7234 3.23049C95.7234 0.959369 94.0298 0.468811 92.3294 0.468811H87.1065ZM89.4747 2.37858H92.4168C93.1152 2.37858 93.4429 2.65073 93.4429 3.20746C93.4429 3.84053 93.037 4.02611 92.4602 4.02611H89.4747V2.37858ZM81.1228 2.46591H86.4111V0.468811H78.7326V8.23836H81.1228V2.46591Z" fill="#124763"/>
<path d="M42.7046 11.9174H44.2803C44.8189 11.9174 45.2097 12.0198 45.4523 12.225C45.6953 12.4302 45.8167 12.7364 45.8167 13.1427C45.8129 13.5758 45.6765 13.8959 45.4073 14.103C45.1379 14.3101 44.7606 14.4137 44.2746 14.4137H43.4276V15.8707H42.7046V11.9174ZM43.4276 12.516V13.8151H44.2693C44.5516 13.8188 44.7557 13.7678 44.882 13.6624C45.0082 13.5569 45.071 13.3951 45.071 13.1767C45.0672 12.9507 45.0007 12.7851 44.8706 12.6797C44.7406 12.5742 44.5422 12.5198 44.2746 12.516H43.4276ZM50.4156 13.5437H52.4263V14.1423H50.4156V15.2721H52.72V15.8707H49.6926V11.9174H52.658V12.516H50.4156V13.5437ZM57.2342 12.516V15.8707H56.5112V11.9174H59.0979V12.516H57.2342ZM63.5895 14.8091L65.4702 11.9174H66.1762V15.8707H65.4532V12.979L63.5725 15.8707H62.8665V11.9174H63.5895V14.8091ZM70.1258 13.894C70.1258 13.2538 70.2883 12.7447 70.6141 12.3664C70.9399 11.9877 71.423 11.7987 72.0628 11.7987C72.6993 11.7987 73.1812 11.9877 73.5085 12.3664C73.8362 12.7447 73.9998 13.2538 73.9998 13.894C73.9998 14.5381 73.8362 15.0479 73.5085 15.4248C73.1812 15.8012 72.6993 15.9894 72.0628 15.9894C71.423 15.9894 70.9399 15.8012 70.6141 15.4248C70.2883 15.0479 70.1258 14.5381 70.1258 13.894ZM70.8995 13.894C70.8995 14.3423 70.9936 14.7036 71.1818 14.9784C71.37 15.2531 71.6637 15.3907 72.0628 15.3907C72.4582 15.3907 72.7511 15.2531 72.9412 14.9784C73.1313 14.7036 73.2262 14.3423 73.2262 13.894C73.2262 13.4496 73.1313 13.0894 72.9412 12.8123C72.7511 12.5357 72.4582 12.3973 72.0628 12.3973C71.6637 12.3973 71.37 12.5357 71.1818 12.8123C70.9936 13.0894 70.8995 13.4496 70.8995 13.894ZM78.6725 14.0974V15.8707H77.9494V11.9174H78.6725V13.4987H80.4345V11.9174H81.1575V15.8707H80.4345V14.0974H78.6725ZM85.8846 15.0404L85.603 15.8707H84.8301L86.3211 11.9174H87.0441L88.5352 15.8707H87.7622L87.481 15.0404H85.8846ZM86.0879 14.4421H87.2777L86.6828 12.6872L86.0879 14.4421ZM91.6771 15.8707V15.2721C91.9896 15.3288 92.2145 15.2222 92.3517 14.9531C92.4893 14.6836 92.56 14.1896 92.5637 13.4704V11.9174H95.2691V15.8707H94.5461V12.516H93.2864V13.685C93.2864 14.5547 93.1549 15.1583 92.8911 15.495C92.6276 15.8322 92.2228 15.9573 91.6771 15.8707ZM100.167 11.9174V13.4424H101.195C101.636 13.4458 101.975 13.5505 102.212 13.7557C102.449 13.9609 102.567 14.2686 102.567 14.679C102.567 15.0366 102.453 15.325 102.223 15.543C101.993 15.7615 101.649 15.8707 101.189 15.8707H99.4444V11.9174H100.167ZM100.167 14.0407V15.2721H101.048C101.304 15.2721 101.497 15.224 101.627 15.128C101.757 15.032 101.822 14.8711 101.822 14.645C101.822 14.4421 101.762 14.2913 101.641 14.1934C101.521 14.0955 101.329 14.0445 101.065 14.0407H100.167ZM107.166 14.0974V15.8707H106.444V11.9174H107.166V13.4987H108.929V11.9174H109.652V15.8707H108.929V14.0974H107.166ZM114.55 11.9174V13.4424H115.578C116.018 13.4458 116.357 13.5505 116.594 13.7557C116.832 13.9609 116.95 14.2686 116.95 14.679C116.95 15.0366 116.836 15.325 116.606 15.543C116.376 15.7615 116.032 15.8707 115.572 15.8707H113.827V11.9174H114.55ZM114.55 14.0407V15.2721H115.431C115.687 15.2721 115.88 15.224 116.01 15.128C116.14 15.032 116.205 14.8711 116.205 14.645C116.205 14.4421 116.145 14.2913 116.024 14.1934C115.903 14.0955 115.711 14.0445 115.448 14.0407H114.55ZM117.272 11.9174H117.995V15.8707H117.272V11.9174ZM122.893 14.8091L124.774 11.9174H125.48V15.8707H124.757V12.979L122.876 15.8707H122.17V11.9174H122.893V14.8091ZM122.639 10.8836H123.221C123.232 11.0307 123.295 11.1433 123.41 11.2226C123.525 11.3016 123.664 11.3414 123.825 11.3414C123.984 11.3448 124.12 11.3062 124.235 11.2253C124.35 11.1444 124.415 11.0307 124.43 10.8836H125.011C124.966 11.1395 124.841 11.3478 124.636 11.5076C124.43 11.6679 124.161 11.7476 123.825 11.7476C123.486 11.7476 123.215 11.6679 123.009 11.5076C122.804 11.3478 122.681 11.1395 122.639 10.8836ZM43.4276 21.7301L45.3083 18.8384H46.0143V22.7918H45.2913V19.9001L43.4106 22.7918H42.7046V18.8384H43.4276V21.7301ZM49.7806 21.0185V22.7918H49.0576V18.8384H49.7806V20.4198H51.5427V18.8384H52.2657V22.7918H51.5427V21.0185H49.7806ZM58.4947 22.1931H59.0367L59.0031 23.6845H58.3704V22.7918H55.4957V23.6845H54.863L54.8289 22.1931H55.168C55.3974 21.8995 55.569 21.5419 55.682 21.1201C55.7946 20.6983 55.8513 20.2221 55.8513 19.6911V18.8384H58.4947V22.1931ZM57.7717 19.4371H56.5743V19.9114C56.5743 20.4349 56.5309 20.8669 56.4443 21.2078C56.3578 21.5483 56.2183 21.8768 56.0263 22.1931H57.7717V19.4371ZM63.142 20.9818L63.9758 18.8384H64.7347L63.4073 22.0238C63.283 22.3175 63.1382 22.5284 62.9727 22.6565C62.8068 22.7846 62.5789 22.8485 62.289 22.8485C62.1722 22.8447 62.0773 22.839 62.004 22.8315C61.9303 22.8239 61.8539 22.8088 61.775 22.7861V22.1595C61.8392 22.1818 61.9057 22.1988 61.9757 22.2101C62.0452 22.2215 62.1159 22.2271 62.1873 22.2271C62.3457 22.2271 62.4689 22.1897 62.5573 22.1141C62.6458 22.0389 62.7108 21.9183 62.7524 21.7528L61.2439 18.8384H62.128L63.142 20.9818ZM69.845 21.4421H70.568C70.5231 21.9391 70.3477 22.308 70.043 22.5492C69.7377 22.7899 69.3423 22.9105 68.857 22.9105C68.2168 22.9105 67.73 22.7298 67.3966 22.3681C67.0637 22.0068 66.897 21.5117 66.897 20.8828C66.897 20.2013 67.0618 19.6707 67.3909 19.2901C67.7205 18.9098 68.196 18.7197 68.8174 18.7197C69.3631 18.7197 69.7755 18.8486 70.054 19.1068C70.3326 19.3645 70.4853 19.7005 70.5117 20.1148H69.7887C69.7547 19.8774 69.6579 19.6854 69.4988 19.5388C69.3386 19.3917 69.111 19.3184 68.8143 19.3184C68.4428 19.3184 68.1582 19.4473 67.9605 19.7054C67.764 19.9632 67.6669 20.3465 67.6706 20.8548C67.6669 21.3102 67.778 21.667 68.0029 21.9248C68.2278 22.1829 68.5237 22.3118 68.888 22.3118C69.1617 22.3156 69.3858 22.2385 69.5608 22.0805C69.735 21.9221 69.8303 21.7094 69.845 21.4421ZM74.182 19.4371H72.9393V18.8384H76.1474V19.4371H74.905V22.7918H74.182V19.4371ZM78.784 18.8384H80.3596C80.8982 18.8384 81.289 18.9412 81.5321 19.1464C81.7747 19.3513 81.896 19.6574 81.896 20.0641C81.8926 20.4969 81.7558 20.817 81.4867 21.0241C81.2172 21.2312 80.84 21.3348 80.354 21.3348H79.507V22.7918H78.784V18.8384ZM79.507 19.4371V20.7361H80.3487C80.631 20.7399 80.8355 20.6893 80.9613 20.5838C81.0876 20.4784 81.1507 20.3162 81.1507 20.0977C81.1469 19.8721 81.08 19.7062 80.95 19.6007C80.82 19.4953 80.6216 19.4409 80.354 19.4371H79.507ZM85.363 21.7301L87.2441 18.8384H87.9497V22.7918H87.227V19.9001L85.3464 22.7918H84.6404V18.8384H85.363V21.7301ZM91.5448 21.9618L91.2636 22.7918H90.4907L91.9817 18.8384H92.7043L94.1957 22.7918H93.4228L93.1413 21.9618H91.5448ZM91.7481 21.3632H92.9379L92.343 19.6083L91.7481 21.3632ZM96.2053 22.7918V22.1931C96.5179 22.2498 96.7428 22.1432 96.8803 21.8741C97.0175 21.605 97.0882 21.1107 97.092 20.3914V18.8384H99.7974V22.7918H99.0747V19.4371H97.815V20.6061C97.815 21.4761 97.6831 22.0793 97.4197 22.4165C97.1563 22.7532 96.7514 22.8784 96.2053 22.7918ZM103.564 18.8384V20.3635H104.592C105.032 20.3672 105.371 20.4716 105.608 20.6768C105.846 20.882 105.964 21.1897 105.964 21.6001C105.964 21.958 105.85 22.246 105.62 22.4645C105.39 22.6826 105.046 22.7918 104.586 22.7918H102.841V18.8384H103.564ZM103.564 20.9621V22.1931H104.445C104.701 22.1931 104.894 22.1451 105.024 22.0491C105.154 21.9531 105.219 21.7921 105.219 21.5665C105.219 21.3631 105.159 21.2123 105.038 21.1145C104.918 21.0166 104.725 20.9659 104.462 20.9621H103.564ZM109.431 21.0185V22.7918H108.708V18.8384H109.431V20.4198H111.193V18.8384H111.916V22.7918H111.193V21.0185H109.431ZM115.683 18.8384V20.3635H116.711C117.151 20.3672 117.49 20.4716 117.727 20.6768C117.964 20.882 118.083 21.1897 118.083 21.6001C118.083 21.958 117.968 22.246 117.738 22.4645C117.509 22.6826 117.164 22.7918 116.705 22.7918H114.96V18.8384H115.683ZM115.683 20.9621V22.1931H116.564C116.82 22.1931 117.013 22.1451 117.143 22.0491C117.272 21.9531 117.337 21.7921 117.337 21.5665C117.337 21.3631 117.277 21.2123 117.157 21.1145C117.036 21.0166 116.844 20.9659 116.581 20.9621H115.683ZM118.405 18.8384H119.128V22.7918H118.405V18.8384ZM122.894 21.7301L124.775 18.8384H125.481V22.7918H124.758V19.9001L122.877 22.7918H122.171V18.8384H122.894V21.7301ZM122.64 17.8047H123.222C123.233 17.9517 123.296 18.0647 123.411 18.1437C123.526 18.2227 123.664 18.2624 123.826 18.2624C123.984 18.2662 124.121 18.2276 124.236 18.1464C124.35 18.0655 124.415 17.9517 124.43 17.8047H125.012C124.967 18.061 124.842 18.2688 124.637 18.4287C124.432 18.589 124.161 18.6691 123.826 18.6691C123.487 18.6691 123.215 18.589 123.01 18.4287C122.805 18.2688 122.682 18.061 122.64 17.8047ZM45.89 29.1146H46.4324L46.3983 30.6056H45.766V29.7133H42.8909V30.6056H42.2582L42.2246 29.1146H42.5636C42.793 28.8209 42.9646 28.463 43.0776 28.0415C43.1903 27.6194 43.247 27.1432 43.247 26.6125V25.7595H45.89V29.1146ZM45.167 26.3581H43.97V26.8325C43.97 27.356 43.9265 27.7883 43.84 28.1289C43.7534 28.4698 43.614 28.7982 43.422 29.1146H45.167V26.3581ZM51.6209 27.3862H53.6316V27.9849H51.6209V29.1146H53.9253V29.7133H50.8982V25.7595H53.8633V26.3581H51.6209V27.3862ZM58.4138 25.7595H60.2775C60.688 25.7595 60.9911 25.8491 61.1869 26.0278C61.3827 26.2066 61.4805 26.4504 61.4805 26.7592C61.4805 26.9776 61.4193 27.1651 61.2969 27.3212C61.1748 27.4777 61.0172 27.5725 60.8255 27.6065V27.6179C61.0663 27.6628 61.2628 27.7675 61.4155 27.9312C61.5682 28.0948 61.6442 28.3197 61.6442 28.6062C61.6442 28.9713 61.5286 29.2472 61.2969 29.4336C61.0656 29.6199 60.6993 29.7133 60.1985 29.7133H58.4138V25.7595ZM59.1365 26.3581V27.3635H60.0912C60.2983 27.3673 60.4574 27.3318 60.5682 27.2562C60.6793 27.181 60.7348 27.0604 60.7348 26.8948C60.7314 26.7327 60.6766 26.6031 60.5712 26.5052C60.4657 26.4073 60.3002 26.3581 60.0742 26.3581H59.1365ZM59.1365 27.9622V29.1146H60.1248C60.3962 29.1146 60.5927 29.0673 60.7152 28.9732C60.8376 28.8791 60.8989 28.7302 60.8989 28.5272C60.8989 28.3386 60.8384 28.1984 60.7182 28.1062C60.5976 28.014 60.4056 27.966 60.1418 27.9622H59.1365ZM67.0871 27.3862H69.0978V27.9849H67.0871V29.1146H69.3915V29.7133H66.3644V25.7595H69.3295V26.3581H67.0871V27.3862ZM73.4734 29.7133V29.1146C73.7859 29.1709 74.0108 29.0647 74.1484 28.7952C74.2856 28.5261 74.3563 28.0321 74.36 27.3129V25.7595H77.0654V29.7133H76.3424V26.3581H75.0827V27.5275C75.0827 28.3972 74.9511 29.0004 74.6873 29.3375C74.4239 29.6747 74.0191 29.7998 73.4734 29.7133ZM81.712 27.7366C81.712 27.0963 81.8749 26.5868 82.2003 26.2085C82.5261 25.8301 83.0091 25.6412 83.649 25.6412C84.2854 25.6412 84.7673 25.8301 85.095 26.2085C85.4227 26.5868 85.5863 27.0963 85.5863 27.7366C85.5863 28.3802 85.4227 28.8904 85.095 29.2669C84.7673 29.6433 84.2854 29.8319 83.649 29.8319C83.0091 29.8319 82.5261 29.6433 82.2003 29.2669C81.8749 28.8904 81.712 28.3802 81.712 27.7366ZM82.4856 27.7366C82.4856 28.1844 82.5798 28.5457 82.768 28.8209C82.9562 29.0957 83.2502 29.2329 83.649 29.2329C84.0443 29.2329 84.3372 29.0957 84.5273 28.8209C84.7175 28.5457 84.8123 28.1844 84.8123 27.7366C84.8123 27.2921 84.7175 26.9315 84.5273 26.6549C84.3372 26.3782 84.0443 26.2395 83.649 26.2395C83.2502 26.2395 82.9562 26.3782 82.768 26.6549C82.5798 26.9315 82.4856 27.2921 82.4856 27.7366ZM90.9556 26.3581V29.7133H90.2329V25.7595H93.4296V29.7133H92.7066V26.3581H90.9556ZM100.189 29.7133L99.0249 26.5842H99.0139L99.0249 26.7369V29.7133H98.3022V25.7595H99.3809L100.46 28.7566L101.538 25.7595H102.617V29.7133H101.894V26.7369L101.906 26.5842H101.894L100.731 29.7133H100.189ZM108.213 27.3862H110.223V27.9849H108.213V29.1146H110.517V29.7133H107.489V25.7595H110.455V26.3581H108.213V27.3862ZM115.728 27.9395V29.7133H115.005V25.7595H115.728V27.3412H117.49V25.7595H118.213V29.7133H117.49V27.9395H115.728ZM123.921 26.3581H122.679V25.7595H125.887V26.3581H124.644V29.7133H123.921V26.3581Z" fill="#124763"/>
</svg>
